{
  "accessors": [
    {
      "name": "Mesh_14__BodyA_-Mesh_positions",
      "componentType": 5126,
      "count": 38,
      "min": [
        24.60630226135254,
        107.98304748535156,
        -311.9649963378906
      ],
      "max": [
        91.63399505615234,
        115.32605743408203,
        -128.99197387695312
      ],
      "type": "VEC3",
      "bufferView": 0,
      "byteOffset": 0
    },
    {
      "name": "Mesh_14__BodyA_-Mesh_texcoords",
      "componentType": 5126,
      "count": 38,
      "min": [
        0.506738007068634,
        1.0153809785842896
      ],
      "max": [
        0.9456560015678406,
        1.1507569551467896
      ],
      "type": "VEC2",
      "bufferView": 1,
      "byteOffset": 0
    },
    {
      "name": "Mesh_14__BodyA_-Mesh_0_indices",
      "componentType": 5123,
      "count": 102,
      "min": [
        0
      ],
      "max": [
        37
      ],
      "type": "SCALAR",
      "bufferView": 2,
      "byteOffset": 0
    },
    {
      "name": "Mesh_13__BodyA_-Mesh_positions",
      "componentType": 5126,
      "count": 49,
      "min": [
        91.63399505615234,
        108.04610443115234,
        -526.23388671875
      ],
      "max": [
        170.13101196289062,
        115.26310729980469,
        -311.9649963378906
      ],
      "type": "VEC3",
      "bufferView": 0,
      "byteOffset": 456
    },
    {
      "name": "Mesh_13__BodyA_-Mesh_texcoords",
      "componentType": 5126,
      "count": 49,
      "min": [
        0.5056390166282654,
        1.1134769916534424
      ],
      "max": [
        0.7683820128440857,
        1.9491100311279297
      ],
      "type": "VEC2",
      "bufferView": 1,
      "byteOffset": 304
    },
    {
      "name": "Mesh_13__BodyA_-Mesh_0_indices",
      "componentType": 5123,
      "count": 129,
      "min": [
        0
      ],
      "max": [
        48
      ],
      "type": "SCALAR",
      "bufferView": 2,
      "byteOffset": 204
    },
    {
      "name": "Mesh_12__BodyA_-Mesh_positions",
      "componentType": 5126,
      "count": 72,
      "min": [
        -83.63890075683594,
        107.9830322265625,
        -290.14599609375
      ],
      "max": [
        24.60630226135254,
        115.3260726928711,
        -49.40326690673828
      ],
      "type": "VEC3",
      "bufferView": 0,
      "byteOffset": 1044
    },
    {
      "name": "Mesh_12__BodyA_-Mesh_texcoords",
      "componentType": 5126,
      "count": 72,
      "min": [
        0.040004998445510864,
        1.0153809785842896
      ],
      "max": [
        0.9599940180778503,
        1.1507569551467896
      ],
      "type": "VEC2",
      "bufferView": 1,
      "byteOffset": 696
    },
    {
      "name": "Mesh_12__BodyA_-Mesh_0_indices",
      "componentType": 5123,
      "count": 198,
      "min": [
        0
      ],
      "max": [
        71
      ],
      "type": "SCALAR",
      "bufferView": 2,
      "byteOffset": 464
    },
    {
      "name": "Mesh_11__BodyA_-Mesh_positions",
      "componentType": 5126,
      "count": 53,
      "min": [
        -170.13099670410156,
        108.03809356689453,
        -526.2339477539062
      ],
      "max": [
        -83.63890075683594,
        115.2710952758789,
        -290.14599609375
      ],
      "type": "VEC3",
      "bufferView": 0,
      "byteOffset": 1908
    },
    {
      "name": "Mesh_11__BodyA_-Mesh_texcoords",
      "componentType": 5126,
      "count": 53,
      "min": [
        0.2316180020570755,
        1.1134769916534424
      ],
      "max": [
        0.494361013174057,
        1.9491100311279297
      ],
      "type": "VEC2",
      "bufferView": 1,
      "byteOffset": 1272
    },
    {
      "name": "Mesh_11__BodyA_-Mesh_0_indices",
      "componentType": 5123,
      "count": 141,
      "min": [
        0
      ],
      "max": [
        52
      ],
      "type": "SCALAR",
      "bufferView": 2,
      "byteOffset": 860
    },
    {
      "name": "Mesh_10__BodyAVco_-Mesh_positions",
      "componentType": 5126,
      "count": 95,
      "min": [
        24.103103637695312,
        107.98304748535156,
        -312.1419982910156
      ],
      "max": [
        91.63399505615234,
        115.32705688476562,
        -128.99197387695312
      ],
      "type": "VEC3",
      "bufferView": 0,
      "byteOffset": 2544
    },
    {
      "name": "Mesh_10__BodyAVco_-Mesh_texcoords",
      "componentType": 5126,
      "count": 95,
      "min": [
        0.506738007068634,
        1.0086009502410889
      ],
      "max": [
        0.9456560015678406,
        1.194357991218567
      ],
      "type": "VEC2",
      "bufferView": 1,
      "byteOffset": 1696
    },
    {
      "name": "Mesh_10__BodyAVco_-Mesh_0_indices",
      "componentType": 5123,
      "count": 306,
      "min": [
        0
      ],
      "max": [
        94
      ],
      "type": "SCALAR",
      "bufferView": 2,
      "byteOffset": 1144
    },
    {
      "name": "Mesh_9__BodyAVco_-Mesh_positions",
      "componentType": 5126,
      "count": 125,
      "min": [
        91.14759063720703,
        108.04610443115234,
        -526.4058837890625
      ],
      "max": [
        170.13101196289062,
        115.26310729980469,
        -311.9649963378906
      ],
      "type": "VEC3",
      "bufferView": 0,
      "byteOffset": 3684
    },
    {
      "name": "Mesh_9__BodyAVco_-Mesh_texcoords",
      "componentType": 5126,
      "count": 125,
      "min": [
        0.5056390166282654,
        1.1066980361938477
      ],
      "max": [
        0.7683820128440857,
        1.9927109479904175
      ],
      "type": "VEC2",
      "bufferView": 1,
      "byteOffset": 2456
    },
    {
      "name": "Mesh_9__BodyAVco_-Mesh_0_indices",
      "componentType": 5123,
      "count": 393,
      "min": [
        0
      ],
      "max": [
        124
      ],
      "type": "SCALAR",
      "bufferView": 2,
      "byteOffset": 1756
    },
    {
      "name": "Mesh_8__BodyAVco_-Mesh_positions",
      "componentType": 5126,
      "count": 178,
      "min": [
        -83.63890075683594,
        107.9830322265625,
        -290.3249816894531
      ],
      "max": [
        24.60630226135254,
        115.32705688476562,
        -49.394866943359375
      ],
      "type": "VEC3",
      "bufferView": 0,
      "byteOffset": 5184
    },
    {
      "name": "Mesh_8__BodyAVco_-Mesh_texcoords",
      "componentType": 5126,
      "count": 178,
      "min": [
        0.040004998445510864,
        1.0086009502410889
      ],
      "max": [
        0.9599940180778503,
        1.194357991218567
      ],
      "type": "VEC2",
      "bufferView": 1,
      "byteOffset": 3456
    },
    {
      "name": "Mesh_8__BodyAVco_-Mesh_0_indices",
      "componentType": 5123,
      "count": 582,
      "min": [
        0
      ],
      "max": [
        177
      ],
      "type": "SCALAR",
      "bufferView": 2,
      "byteOffset": 2544
    },
    {
      "name": "Mesh_7__BodyAVco_-Mesh_positions",
      "componentType": 5126,
      "count": 135,
      "min": [
        -170.13099670410156,
        108.03809356689453,
        -526.4059448242188
      ],
      "max": [
        -83.15039825439453,
        115.2710952758789,
        -290.14599609375
      ],
      "type": "VEC3",
      "bufferView": 0,
      "byteOffset": 7320
    },
    {
      "name": "Mesh_7__BodyAVco_-Mesh_texcoords",
      "componentType": 5126,
      "count": 135,
      "min": [
        0.2316180020570755,
        1.1066980361938477
      ],
      "max": [
        0.494361013174057,
        1.9927109479904175
      ],
      "type": "VEC2",
      "bufferView": 1,
      "byteOffset": 4880
    },
    {
      "name": "Mesh_7__BodyAVco_-Mesh_0_indices",
      "componentType": 5123,
      "count": 429,
      "min": [
        0
      ],
      "max": [
        134
      ],
      "type": "SCALAR",
      "bufferView": 2,
      "byteOffset": 3708
    },
    {
      "name": "Mesh_6__Eye01_-Mesh_positions",
      "componentType": 5126,
      "count": 36,
      "min": [
        -17.39430046081543,
        128.8339385986328,
        103.45003509521484
      ],
      "max": [
        17.394100189208984,
        145.1039581298828,
        119.60904693603516
      ],
      "type": "VEC3",
      "bufferView": 0,
      "byteOffset": 8940
    },
    {
      "name": "Mesh_6__Eye01_-Mesh_texcoords",
      "componentType": 5126,
      "count": 36,
      "min": [
        0.770380973815918,
        3.806529998779297
      ],
      "max": [
        1.2296199798583984,
        3.9701099395751953
      ],
      "type": "VEC2",
      "bufferView": 1,
      "byteOffset": 5960
    },
    {
      "name": "Mesh_6__Eye01_-Mesh_0_indices",
      "componentType": 5123,
      "count": 96,
      "min": [
        0
      ],
      "max": [
        35
      ],
      "type": "SCALAR",
      "bufferView": 2,
      "byteOffset": 4568
    },
    {
      "name": "Mesh_5__Eye_-Mesh_positions",
      "componentType": 5126,
      "count": 48,
      "min": [
        -15.241299629211426,
        125.75994110107422,
        100.65904235839844
      ],
      "max": [
        15.24109935760498,
        144.48695373535156,
        122.09703826904297
      ],
      "type": "VEC3",
      "bufferView": 0,
      "byteOffset": 9372
    },
    {
      "name": "Mesh_5__Eye_-Mesh_texcoords",
      "componentType": 5126,
      "count": 48,
      "min": [
        0.7555480003356934,
        3.775739908218384
      ],
      "max": [
        1.2444499731063843,
        3.940340042114258
      ],
      "type": "VEC2",
      "bufferView": 1,
      "byteOffset": 6248
    },
    {
      "name": "Mesh_5__Eye_-Mesh_0_indices",
      "componentType": 5123,
      "count": 162,
      "min": [
        0
      ],
      "max": [
        47
      ],
      "type": "SCALAR",
      "bufferView": 2,
      "byteOffset": 4760
    },
    {
      "name": "Mesh_4__BodyASpc00_-Mesh_positions",
      "componentType": 5126,
      "count": 294,
      "min": [
        -36.71500015258789,
        129.3949432373047,
        53.11726760864258
      ],
      "max": [
        36.714599609375,
        214.52996826171875,
        122.50904083251953
      ],
      "type": "VEC3",
      "bufferView": 0,
      "byteOffset": 9948
    },
    {
      "name": "Mesh_4__BodyASpc00_-Mesh_texcoords",
      "componentType": 5126,
      "count": 294,
      "min": [
        0.0050860000774264336,
        1.2048540115356445
      ],
      "max": [
        0.9949139952659607,
        1.573917031288147
      ],
      "type": "VEC2",
      "bufferView": 1,
      "byteOffset": 6632
    },
    {
      "name": "Mesh_4__BodyASpc00_-Mesh_0_indices",
      "componentType": 5123,
      "count": 1272,
      "min": [
        0
      ],
      "max": [
        293
      ],
      "type": "SCALAR",
      "bufferView": 2,
      "byteOffset": 5084
    },
    {
      "name": "Mesh_3__BodyASpc01_-Mesh_positions",
      "componentType": 5126,
      "count": 658,
      "min": [
        -46.31939697265625,
        136.37901306152344,
        -134.56494140625
      ],
      "max": [
        46.31900405883789,
        219.62899780273438,
        109.44404602050781
      ],
      "type": "VEC3",
      "bufferView": 0,
      "byteOffset": 13476
    },
    {
      "name": "Mesh_3__BodyASpc01_-Mesh_texcoords",
      "componentType": 5126,
      "count": 658,
      "min": [
        0.005156000144779682,
        1.2094709873199463
      ],
      "max": [
        0.9948430061340332,
        1.9927610158920288
      ],
      "type": "VEC2",
      "bufferView": 1,
      "byteOffset": 8984
    },
    {
      "name": "Mesh_3__BodyASpc01_-Mesh_0_indices",
      "componentType": 5123,
      "count": 3258,
      "min": [
        0
      ],
      "max": [
        657
      ],
      "type": "SCALAR",
      "bufferView": 2,
      "byteOffset": 7628
    },
    {
      "name": "Mesh_2__BodyB_-Mesh_positions",
      "componentType": 5126,
      "count": 844,
      "min": [
        -30.36429786682129,
        -0.23844300210475922,
        -9.098362922668457
      ],
      "max": [
        30.364503860473633,
        141.67498779296875,
        82.54212951660156
      ],
      "type": "VEC3",
      "bufferView": 0,
      "byteOffset": 21372
    },
    {
      "name": "Mesh_2__BodyB_-Mesh_texcoords",
      "componentType": 5126,
      "count": 844,
      "min": [
        0.0028520000632852316,
        2.0181798934936523
      ],
      "max": [
        0.9971470236778259,
        2.9937100410461426
      ],
      "type": "VEC2",
      "bufferView": 1,
      "byteOffset": 14248
    },
    {
      "name": "Mesh_2__BodyB_-Mesh_0_indices",
      "componentType": 5123,
      "count": 4011,
      "min": [
        0
      ],
      "max": [
        843
      ],
      "type": "SCALAR",
      "bufferView": 2,
      "byteOffset": 14144
    },
    {
      "name": "Mesh_1__BodyB_-Mesh_positions",
      "componentType": 5126,
      "count": 1321,
      "min": [
        -30.12689971923828,
        -0.4439370036125183,
        -73.63117218017578
      ],
      "max": [
        30.12710189819336,
        154.67994689941406,
        127.80403900146484
      ],
      "type": "VEC3",
      "bufferView": 0,
      "byteOffset": 31500
    },
    {
      "name": "Mesh_1__BodyB_-Mesh_texcoords",
      "componentType": 5126,
      "count": 1321,
      "min": [
        0.01215600036084652,
        2.0123000144958496
      ],
      "max": [
        0.9878429770469666,
        2.9937100410461426
      ],
      "type": "VEC2",
      "bufferView": 1,
      "byteOffset": 21000
    },
    {
      "name": "Mesh_1__BodyB_-Mesh_0_indices",
      "componentType": 5123,
      "count": 6165,
      "min": [
        0
      ],
      "max": [
        1320
      ],
      "type": "SCALAR",
      "bufferView": 2,
      "byteOffset": 22168
    }
  ],
  "asset": {
    "generator": "obj2gltf",
    "version": "2.0"
  },
  "buffers": [
    {
      "name": "suicune",
      "byteLength": 113420,
      "uri": "data:application/octet-stream;base64,"
    }
  ],
  "bufferViews": [
    {
      "name": "bufferView_0",
      "buffer": 0,
      "byteLength": 47352,
      "byteOffset": 0,
      "byteStride": 12,
      "target": 34962
    },
    {
      "name": "bufferView_1",
      "buffer": 0,
      "byteLength": 31568,
      "byteOffset": 47352,
      "byteStride": 8,
      "target": 34962
    },
    {
      "name": "bufferView_2",
      "buffer": 0,
      "byteLength": 34500,
      "byteOffset": 78920,
      "target": 34963
    }
  ],
  "materials": [
    {
      "name": "BodyA",
      "pbrMetallicRoughness": {
        "baseColorFactor": [
          0.5,
          0.5,
          0.5,
          1
        ],
        "metallicFactor": 0,
        "roughnessFactor": 1
      },
      "emissiveFactor": [
        0,
        0,
        0
      ],
      "alphaMode": "OPAQUE",
      "doubleSided": false
    },
    {
      "name": "BodyAVco",
      "pbrMetallicRoughness": {
        "baseColorFactor": [
          0.5,
          0.5,
          0.5,
          1
        ],
        "metallicFactor": 0,
        "roughnessFactor": 1
      },
      "emissiveFactor": [
        0,
        0,
        0
      ],
      "alphaMode": "OPAQUE",
      "doubleSided": false
    },
    {
      "name": "Eye01",
      "pbrMetallicRoughness": {
        "baseColorFactor": [
          0.5,
          0.5,
          0.5,
          1
        ],
        "metallicFactor": 0,
        "roughnessFactor": 1
      },
      "emissiveFactor": [
        0,
        0,
        0
      ],
      "alphaMode": "OPAQUE",
      "doubleSided": false
    },
    {
      "name": "Eye",
      "pbrMetallicRoughness": {
        "baseColorFactor": [
          0.5,
          0.5,
          0.5,
          1
        ],
        "metallicFactor": 0,
        "roughnessFactor": 1
      },
      "emissiveFactor": [
        0,
        0,
        0
      ],
      "alphaMode": "OPAQUE",
      "doubleSided": false
    },
    {
      "name": "BodyASpc00",
      "pbrMetallicRoughness": {
        "baseColorFactor": [
          0.5,
          0.5,
          0.5,
          1
        ],
        "metallicFactor": 0,
        "roughnessFactor": 1
      },
      "emissiveFactor": [
        0,
        0,
        0
      ],
      "alphaMode": "OPAQUE",
      "doubleSided": false
    },
    {
      "name": "BodyASpc01",
      "pbrMetallicRoughness": {
        "baseColorFactor": [
          0.5,
          0.5,
          0.5,
          1
        ],
        "metallicFactor": 0,
        "roughnessFactor": 1
      },
      "emissiveFactor": [
        0,
        0,
        0
      ],
      "alphaMode": "OPAQUE",
      "doubleSided": false
    },
    {
      "name": "BodyB",
      "pbrMetallicRoughness": {
        "baseColorFactor": [
          0.5,
          0.5,
          0.5,
          1
        ],
        "metallicFactor": 0,
        "roughnessFactor": 1
      },
      "emissiveFactor": [
        0,
        0,
        0
      ],
      "alphaMode": "OPAQUE",
      "doubleSided": false
    }
  ],
  "meshes": [
    {
      "name": "Mesh_14__BodyA_-Mesh",
      "primitives": [
        {
          "attributes": {
            "POSITION": 0,
            "TEXCOORD_0": 1
          },
          "indices": 2,
          "material": 0,
          "mode": 4
        }
      ]
    },
    {
      "name": "Mesh_13__BodyA_-Mesh",
      "primitives": [
        {
          "attributes": {
            "POSITION": 3,
            "TEXCOORD_0": 4
          },
          "indices": 5,
          "material": 0,
          "mode": 4
        }
      ]
    },
    {
      "name": "Mesh_12__BodyA_-Mesh",
      "primitives": [
        {
          "attributes": {
            "POSITION": 6,
            "TEXCOORD_0": 7
          },
          "indices": 8,
          "material": 0,
          "mode": 4
        }
      ]
    },
    {
      "name": "Mesh_11__BodyA_-Mesh",
      "primitives": [
        {
          "attributes": {
            "POSITION": 9,
            "TEXCOORD_0": 10
          },
          "indices": 11,
          "material": 0,
          "mode": 4
        }
      ]
    },
    {
      "name": "Mesh_10__BodyAVco_-Mesh",
      "primitives": [
        {
          "attributes": {
            "POSITION": 12,
            "TEXCOORD_0": 13
          },
          "indices": 14,
          "material": 1,
          "mode": 4
        }
      ]
    },
    {
      "name": "Mesh_9__BodyAVco_-Mesh",
      "primitives": [
        {
          "attributes": {
            "POSITION": 15,
            "TEXCOORD_0": 16
          },
          "indices": 17,
          "material": 1,
          "mode": 4
        }
      ]
    },
    {
      "name": "Mesh_8__BodyAVco_-Mesh",
      "primitives": [
        {
          "attributes": {
            "POSITION": 18,
            "TEXCOORD_0": 19
          },
          "indices": 20,
          "material": 1,
          "mode": 4
        }
      ]
    },
    {
      "name": "Mesh_7__BodyAVco_-Mesh",
      "primitives": [
        {
          "attributes": {
            "POSITION": 21,
            "TEXCOORD_0": 22
          },
          "indices": 23,
          "material": 1,
          "mode": 4
        }
      ]
    },
    {
      "name": "Mesh_6__Eye01_-Mesh",
      "primitives": [
        {
          "attributes": {
            "POSITION": 24,
            "TEXCOORD_0": 25
          },
          "indices": 26,
          "material": 2,
          "mode": 4
        }
      ]
    },
    {
      "name": "Mesh_5__Eye_-Mesh",
      "primitives": [
        {
          "attributes": {
            "POSITION": 27,
            "TEXCOORD_0": 28
          },
          "indices": 29,
          "material": 3,
          "mode": 4
        }
      ]
    },
    {
      "name": "Mesh_4__BodyASpc00_-Mesh",
      "primitives": [
        {
          "attributes": {
            "POSITION": 30,
            "TEXCOORD_0": 31
          },
          "indices": 32,
          "material": 4,
          "mode": 4
        }
      ]
    },
    {
      "name": "Mesh_3__BodyASpc01_-Mesh",
      "primitives": [
        {
          "attributes": {
            "POSITION": 33,
            "TEXCOORD_0": 34
          },
          "indices": 35,
          "material": 5,
          "mode": 4
        }
      ]
    },
    {
      "name": "Mesh_2__BodyB_-Mesh",
      "primitives": [
        {
          "attributes": {
            "POSITION": 36,
            "TEXCOORD_0": 37
          },
          "indices": 38,
          "material": 6,
          "mode": 4
        }
      ]
    },
    {
      "name": "Mesh_1__BodyB_-Mesh",
      "primitives": [
        {
          "attributes": {
            "POSITION": 39,
            "TEXCOORD_0": 40
          },
          "indices": 41,
          "material": 6,
          "mode": 4
        }
      ]
    }
  ],
  "nodes": [
    {
      "name": "Mesh_14__BodyA_",
      "mesh": 0
    },
    {
      "name": "Mesh_13__BodyA_",
      "mesh": 1
    },
    {
      "name": "Mesh_12__BodyA_",
      "mesh": 2
    },
    {
      "name": "Mesh_11__BodyA_",
      "mesh": 3
    },
    {
      "name": "Mesh_10__BodyAVco_",
      "mesh": 4
    },
    {
      "name": "Mesh_9__BodyAVco_",
      "mesh": 5
    },
    {
      "name": "Mesh_8__BodyAVco_",
      "mesh": 6
    },
    {
      "name": "Mesh_7__BodyAVco_",
      "mesh": 7
    },
    {
      "name": "Mesh_6__Eye01_",
      "mesh": 8
    },
    {
      "name": "Mesh_5__Eye_",
      "mesh": 9
    },
    {
      "name": "Mesh_4__BodyASpc00_",
      "mesh": 10
    },
    {
      "name": "Mesh_3__BodyASpc01_",
      "mesh": 11
    },
    {
      "name": "Mesh_2__BodyB_",
      "mesh": 12
    },
    {
      "name": "Mesh_1__BodyB_",
      "mesh": 13
    }
  ],
  "scene": 0,
  "scenes": [
    {
      "nodes": [
        0,
        1,
        2,
        3,
        4,
        5,
        6,
        7,
        8,
        9,
        10,
        11,
        12,
        13
      ]
    }
  ]
}
